<svg width="40" height="40" viewBox="0 0 40 40" fill="none" xmlns="http://www.w3.org/2000/svg">
<path d="M9.57441 6C10.5744 5 9.82441 2 8.13641 2C6.44841 2 6.57441 4 7.57441 4C8.57441 4 8.57441 6 8.57441 7C8.57441 8 9.57441 6 9.57441 6ZM5.39141 7.72C6.39141 6.72 5.64141 3.72 3.95341 3.72C2.26541 3.72 2.39141 5.72 3.39141 5.72C4.39141 5.72 4.39141 7.72 4.39141 8.72C4.39141 9.72 5.39141 7.72 5.39141 7.72Z" fill="#AA8DD8"/>
<path d="M31.7664 34.856C31.9554 35.664 32.9934 37.136 33.7984 36.947C34.6044 36.757 34.8754 34.976 34.6864 34.17C34.4974 33.362 33.6884 32.863 32.8824 33.053C32.0774 33.243 31.5764 34.05 31.7664 34.856ZM26.3324 35.505C26.3354 36.335 27.0134 38.003 27.8414 38C28.6694 37.996 29.3354 36.323 29.3324 35.494C29.3294 34.665 28.6554 33.997 27.8274 33.999C26.9994 34.003 26.3294 34.676 26.3324 35.505ZM21.0614 33.059C20.7354 33.823 20.6964 35.622 21.4574 35.949C22.2204 36.273 23.4944 35.002 23.8204 34.239C24.1454 33.477 23.7924 32.596 23.0314 32.269C22.2694 31.944 21.3884 32.296 21.0614 33.059ZM16.0304 22.019C15.2184 22.191 13.7224 23.192 13.8914 24.002C14.0644 24.812 15.8364 25.126 16.6484 24.955C17.4594 24.784 17.9774 23.988 17.8084 23.178C17.6364 22.368 16.8434 21.848 16.0304 22.019ZM13.9934 17.019C13.1814 17.191 11.6854 18.192 11.8544 19.002C12.0274 19.812 13.7994 20.126 14.6114 19.955C15.4224 19.784 15.9404 18.988 15.7714 18.178C15.5994 17.368 14.8054 16.848 13.9934 17.019Z" fill="#744EAA"/>
<path d="M29.4034 36C32.2344 36 34.3294 35.123 34.6694 34.973C36.9404 33.963 37.9624 31.304 36.9534 29.034C35.9544 26.784 33.3374 25.759 31.0814 26.72C30.9484 26.77 29.2884 27.369 27.7384 26.648C25.8874 25.787 24.7434 23.339 24.1104 21.439C23.9664 21.009 23.7254 20.165 23.4244 19.123C21.5584 12.652 20.5924 10.838 19.4414 9.30299C15.7304 4.35199 9.84939 4.00699 6.95839 4.58699C4.52139 5.07399 2.94039 7.44499 3.42839 9.88199C3.91639 12.32 6.28839 13.902 8.72439 13.412C8.88639 13.386 10.9284 13.106 12.1484 14.581C12.7914 15.868 14.2284 19.709 14.7784 21.615C15.1244 22.814 15.4074 23.786 15.5724 24.282C17.3454 29.599 20.2384 33.175 24.1754 34.911C26.0274 35.729 27.8294 36 29.4034 36Z" fill="#9266CC"/>
<path d="M8.84143 8C9.39372 8 9.84143 7.55228 9.84143 7C9.84143 6.44772 9.39372 6 8.84143 6C8.28915 6 7.84143 6.44772 7.84143 7C7.84143 7.55228 8.28915 8 8.84143 8Z" fill="#202024"/>
<path d="M33.0824 34.964C32.9934 34.964 32.9024 34.952 32.8134 34.928C32.2814 34.78 31.9694 34.229 32.1174 33.697C32.8744 30.975 31.3474 29.155 31.3324 29.137C30.9734 28.718 31.0204 28.086 31.4394 27.727C31.8574 27.368 32.4904 27.415 32.8494 27.834C32.9414 27.941 35.0834 30.494 34.0444 34.231C33.9224 34.674 33.5194 34.964 33.0824 34.964ZM25.8834 34.401C25.6384 34.401 25.3934 34.312 25.1994 34.131C24.7964 33.753 24.7754 33.12 25.1524 32.717C26.6374 31.13 26.6054 28.524 26.6044 28.497C26.5884 27.945 27.0234 27.485 27.5764 27.469C28.1184 27.464 28.5894 27.888 28.6044 28.441C28.6084 28.58 28.6774 31.878 26.6134 34.085C26.4164 34.295 26.1494 34.401 25.8834 34.401ZM17.3414 25.705C16.8614 25.705 16.4374 25.358 16.3564 24.868C16.2664 24.324 16.6344 23.808 17.1794 23.719C20.2534 23.209 21.9534 21.342 21.9704 21.323C22.3354 20.913 22.9684 20.874 23.3794 21.239C23.7914 21.604 23.8324 22.232 23.4704 22.645C23.3834 22.744 21.3144 25.06 17.5064 25.691C17.4504 25.701 17.3954 25.705 17.3414 25.705ZM20.2624 30.562C19.8374 30.562 19.4434 30.29 19.3084 29.864C19.1424 29.338 19.4344 28.775 19.9604 28.609C22.6534 27.756 23.8404 25.779 23.8524 25.759C24.1324 25.282 24.7444 25.122 25.2204 25.402C25.6974 25.681 25.8564 26.295 25.5774 26.77C25.5144 26.878 23.9824 29.433 20.5644 30.514C20.4634 30.547 20.3614 30.562 20.2624 30.562ZM15.6434 19.892C15.1474 19.892 14.7164 19.523 14.6524 19.017C14.5834 18.469 14.9714 17.969 15.5194 17.899C18.2084 17.559 20.1764 15.928 20.1954 15.911C20.6174 15.557 21.2484 15.608 21.6034 16.03C21.9594 16.451 21.9084 17.08 21.4884 17.437C21.3914 17.52 19.0684 19.466 15.7704 19.883C15.7274 19.889 15.6854 19.892 15.6434 19.892ZM13.8224 15.125C13.3974 15.125 13.0034 14.852 12.8684 14.424C12.7034 13.897 12.9954 13.336 13.5224 13.17C16.6524 12.187 17.7754 10.478 17.8214 10.406C18.1164 9.94397 18.7324 9.80097 19.1964 10.094C19.6614 10.386 19.8074 10.993 19.5204 11.46C19.4604 11.557 18.0144 13.856 14.1214 15.079C14.0224 15.11 13.9214 15.125 13.8224 15.125Z" fill="#744EAA"/>
</svg>
