<svg width="40" height="40" viewBox="0 0 40 40" fill="none" xmlns="http://www.w3.org/2000/svg">
<path d="M30.6383 13.92C30.6383 20.359 25.8027 21.359 25.8027 27.36C25.8027 30.458 22.7824 30.719 20.4836 30.719C18.4981 30.719 14.1142 29.94 14.1142 27.358C14.1142 21.36 9.36176 20.36 9.36176 13.92C9.36176 7.889 14.473 3 20.0803 3C25.6895 3 30.6383 7.889 30.6383 13.92Z" fill="#FFD983"/>
<path d="M24.03 35.36C24.03 36.188 21.8694 37.86 20 37.86C18.1306 37.86 15.97 36.188 15.97 35.36C15.97 34.532 18.1296 34.86 20 34.86C21.8694 34.86 24.03 34.532 24.03 35.36Z" fill="#CCD6DD"/>
<path d="M24.5522 13.153C24.1741 12.762 23.5628 12.762 23.1847 13.153L20 16.446L16.8153 13.153C16.4371 12.762 15.8259 12.762 15.4478 13.153C15.0696 13.544 15.0696 14.176 15.4478 14.567L19.0329 18.274V28.86C19.0329 29.413 19.4662 29.86 20 29.86C20.5338 29.86 20.9671 29.413 20.9671 28.86V18.274L24.5522 14.567C24.9304 14.176 24.9304 13.544 24.5522 13.153V13.153Z" fill="#FFCC4D"/>
<path d="M25.8027 33.86C25.8027 34.964 24.9362 35.86 23.8685 35.86H16.1316C15.0639 35.86 14.1973 34.964 14.1973 33.86V27.86H25.8027V33.86Z" fill="#99AAB5"/>
<path d="M14.1964 34.86C13.7322 34.86 13.3221 34.513 13.2438 34.024C13.1558 33.48 13.5117 32.964 14.0387 32.874L25.6441 30.874C26.1702 30.776 26.6693 31.151 26.7563 31.696C26.8443 32.24 26.4884 32.756 25.9613 32.846L14.356 34.846C14.3028 34.856 14.2486 34.86 14.1964 34.86V34.86ZM14.1964 30.86C13.7322 30.86 13.3221 30.513 13.2438 30.024C13.1558 29.48 13.5117 28.964 14.0387 28.874L25.6441 26.874C26.1702 26.777 26.6693 27.151 26.7563 27.696C26.8443 28.24 26.4884 28.756 25.9613 28.846L14.356 30.846C14.3028 30.856 14.2486 30.86 14.1964 30.86V30.86Z" fill="#CCD6DD"/>
</svg>
