<svg width="40" height="40" viewBox="0 0 40 40" fill="none" xmlns="http://www.w3.org/2000/svg">
<path d="M37.4081 14.875C37.4081 11.009 34.3772 7.875 30.6383 7.875C29.5097 7.875 28.4478 8.165 27.5126 8.669C25.499 5.842 22.266 4 18.6103 4C13.6471 4 9.44687 7.38 8.04649 12.036C5.4759 12.653 3.55908 15.03 3.55908 17.875C3.55908 20.854 5.66159 23.32 8.41496 23.788C8.62386 27.737 11.7776 30.875 15.648 30.875C17.7525 30.875 19.6422 29.942 20.9671 28.462C22.2921 29.942 24.1809 30.875 26.2863 30.875C30.293 30.875 33.5396 27.518 33.5396 23.375C33.5396 22.665 33.4381 21.981 33.2601 21.33C35.6963 20.271 37.4081 17.78 37.4081 14.875Z" fill="#85C8F8"/>
<path d="M7.42759 36.875C9.02996 36.875 10.3289 35.5319 10.3289 33.875C10.3289 32.2181 9.02996 30.875 7.42759 30.875C5.82522 30.875 4.52625 32.2181 4.52625 33.875C4.52625 35.5319 5.82522 36.875 7.42759 36.875Z" fill="#85C8F8"/>
</svg>
